g Model_0
v 0.2 -0.01 0.12
v -0.2 -0.01 0.12
v -0.2 0.03 0.12
v 0.2 0.03 0.12
v -0.2 0.03 0.12
v -0.2 -0.01 0.12
v -0.2 -0.01 -0.12
v -0.2 0.03 -0.12
v -0.2 0.03 -0.12
v -0.2 -0.01 -0.12
v 0.2 -0.01 -0.12
v 0.2 0.03 -0.12
v 0.2 0.03 -0.12
v 0.2 -0.01 -0.12
v 0.2 -0.01 0.12
v 0.2 0.03 0.12
v -0.2 -0.01 -0.12
v -0.2 -0.01 0.12
v 0.2 -0.01 0.12
v 0.2 -0.01 -0.12
v -0.2 0.03 -0.12
v 0.2 0.03 -0.12
v 0.2 0.03 0.12
v -0.2 0.03 0.12
vt 0.999971 0.916696
vt 2.9E-05 0.916696
vt 2.9E-05 1.000024
vt 0.999971 1.000024
vt 0.899938 0.500026
vt 0.999929 0.500026
vt 0.999929 7.1E-05
vt 0.899938 7.1E-05
vt 2.9E-05 2.9E-05
vt 2.9E-05 0.083358
vt 0.999971 0.083358
vt 0.999971 2.9E-05
vt 0.10002 2.9E-05
vt 2.9E-05 2.9E-05
vt 2.9E-05 0.499985
vt 0.10002 0.499985
vt 7.1E-05 7.1E-05
vt 7.1E-05 0.5
vt 0.999929 0.5
vt 0.999929 7.1E-05
vt 0.999929 0.500071
vt 7.1E-05 0.500071
vt 7.1E-05 1
vt 0.999929 1
vn 0 0 1
vn 0 0 1
vn 0 0 1
vn 0 0 1
vn -1 0 0
vn -1 0 0
vn -1 0 0
vn -1 0 0
vn 0 0 -1
vn 0 0 -1
vn 0 0 -1
vn 0 0 -1
vn 1 0 0
vn 1 0 0
vn 1 0 0
vn 1 0 0
vn 0 -1 0
vn 0 -1 0
vn 0 -1 0
vn 0 -1 0
vn 0 1 0
vn 0 1 0
vn 0 1 0
vn 0 1 0
f 3/3/3 2/2/2 1/1/1
f 4/4/4 3/3/3 1/1/1
f 7/7/7 6/6/6 5/5/5
f 8/8/8 7/7/7 5/5/5
f 11/11/11 10/10/10 9/9/9
f 12/12/12 11/11/11 9/9/9
f 15/15/15 14/14/14 13/13/13
f 16/16/16 15/15/15 13/13/13
f 19/19/19 18/18/18 17/17/17
f 20/20/20 19/19/19 17/17/17
f 23/23/23 22/22/22 21/21/21
f 24/24/24 23/23/23 21/21/21
